<?xml version="1.0" encoding="UTF-8"?>
<svg width="850pt" height="850pt" version="1.1" viewBox="0 0 850 850" xmlns="http://www.w3.org/2000/svg">
    <style type="text/css">
        .top {
        fill:#6b7280;
        stroke: black;
        stroke-width: 2;
        }
        .left {
        fill: #4b5563;
        stroke: black;
        stroke-width: 2;
        }
        .right {
        fill:#1f2937;
        stroke: black;
        stroke-width: 2;
        }

        @media (prefers-color-scheme: dark) {
        .top {
        fill:#f9fafb;
        stroke: white;
        stroke-width: 2;
        }
        .left {
        fill: #e5e7eb;
        stroke: white;
        stroke-width: 2;
        }
        .right {
        fill: #9ca3af;
        stroke: white;
        stroke-width: 2;
        }
        }
    </style>
    <g>
        <path class="top"
              d="M 230 280 l 157.18 72.352 c 20.668 9.5156 54.496 9.5156 75.145 0 l 132.64 -61.055 l 217.53 -103.74 c -4.5742 -3.4336 -9.25 -6.5156 -14.191 -8.7734 l -317.09 -146.01 c -30.992 -14.277 -81.746 -14.277 -112.76 0 l -317.19 146.01 c -5.0703 2.3164 -9.8672 5.5234 -14.543 9.0625 z"/>
        <path class="left"
              d="m 423.34 420.96 c 0 -22.801 -16.902 -49.16 -37.574 -58.695 l -239.42 -110.15 c -0.207 -0.082 -0.3711 -0.25 -0.5781 -0.3516 l -108.25 -49.883 v 372.25 c 0 34.137 25.387 73.738 56.398 88.035 l 317.19 146.03 c 2.8125 1.3047 5.957 2.3398 9.0625 3.3945 l 3.1445 -193.8 l 0.0039 -196.82 z"/>
        <path class="right"
              d="m 708.59 250.96 c -0.4336 0.2266 -0.8086 0.5391 -1.2812 0.7656 l -239.46 110.21 c -20.691 9.4961 -37.574 35.918 -37.574 58.676 v 162.12 l 0.4766 -0.0195 l -0.7461 229.8 c 4.4688 -1.3438 8.7109 -2.9375 12.621 -4.7383 l 317.17 -146.03 c 30.992 -14.277 56.398 -53.875 56.398 -88.035 l -0.0625 -372.39 z"/>
    </g>
</svg>
